HIERARCHY
ROOT Hips
{
    OFFSET   0.000000   0.000000   0.000000
    CHANNELS 6 Xposition Yposition Zposition Zrotation Xrotation Yrotation
    JOINT Chest
    {
        OFFSET   0.000000   8.007230   0.000000
        CHANNELS 3 Zrotation Xrotation Yrotation
        JOINT Chest2
        {
            OFFSET   0.000000  22.077100   0.000000
            CHANNELS 3 Zrotation Xrotation Yrotation
            JOINT Neck
            {
                OFFSET   0.000000  23.255100   0.000000
                CHANNELS 3 Zrotation Xrotation Yrotation
                JOINT Head
                {
                    OFFSET   0.000000  14.370100   1.956600
                    CHANNELS 3 Zrotation Xrotation Yrotation
                    End Site
                    {
                        OFFSET   0.000000  19.566000   0.000000
                    }
                }
            }
            JOINT LeftCollar
            {
                OFFSET   3.911900  19.017000  -0.467063
                CHANNELS 3 Zrotation Xrotation Yrotation
                JOINT LeftShoulder
                {
                    OFFSET  10.383700   0.000000   0.000000
                    CHANNELS 3 Zrotation Xrotation Yrotation
                    JOINT LeftElbow
                    {
                        OFFSET  26.662100   0.001193   0.000980
                        CHANNELS 3 Zrotation Xrotation Yrotation
                        JOINT LeftWrist
                        {
                            OFFSET  28.869000  -0.000059  -0.000082
                            CHANNELS 3 Zrotation Xrotation Yrotation
                            JOINT LeftFinger0
                            {
                                OFFSET   2.044650  -2.323450   3.252850
                                CHANNELS 3 Zrotation Xrotation Yrotation
                                JOINT LeftFinger01
                                {
                                    OFFSET   3.088130   0.000000   0.000000
                                    CHANNELS 3 Zrotation Xrotation Yrotation
                                    JOINT LeftFinger02
                                    {
                                        OFFSET   2.639460   0.000000   0.000000
                                        CHANNELS 3 Zrotation Xrotation Yrotation
                                        End Site
                                        {
                                            OFFSET   2.582190   0.000000   0.000000
                                        }
                                    }
                                }
                            }
                            JOINT LeftFinger1
                            {
                                OFFSET   8.364480   0.000000   3.252850
                                CHANNELS 3 Zrotation Xrotation Yrotation
                                JOINT LeftFinger11
                                {
                                    OFFSET   4.646930   0.000000   0.000000
                                    CHANNELS 3 Zrotation Xrotation Yrotation
                                    JOINT LeftFinger12
                                    {
                                        OFFSET   2.323470   0.000000   0.000000
                                        CHANNELS 3 Zrotation Xrotation Yrotation
                                        End Site
                                        {
                                            OFFSET   2.273050   0.000000   0.000000
                                        }
                                    }
                                }
                            }
                            JOINT LeftFinger2
                            {
                                OFFSET   8.364490   0.000016   1.078090
                                CHANNELS 3 Zrotation Xrotation Yrotation
                                JOINT LeftFinger21
                                {
                                    OFFSET   5.111610   0.000000   0.000000
                                    CHANNELS 3 Zrotation Xrotation Yrotation
                                    JOINT LeftFinger22
                                    {
                                        OFFSET   2.788150   0.000016   0.000000
                                        CHANNELS 3 Zrotation Xrotation Yrotation
                                        End Site
                                        {
                                            OFFSET   2.727660   0.000000   0.000000
                                        }
                                    }
                                }
                            }
                            JOINT LeftFinger3
                            {
                                OFFSET   7.899780   0.000015  -1.078090
                                CHANNELS 3 Zrotation Xrotation Yrotation
                                JOINT LeftFinger31
                                {
                                    OFFSET   4.646930   0.000000   0.000000
                                    CHANNELS 3 Zrotation Xrotation Yrotation
                                    JOINT LeftFinger32
                                    {
                                        OFFSET   2.323470   0.000000   0.000000
                                        CHANNELS 3 Zrotation Xrotation Yrotation
                                        End Site
                                        {
                                            OFFSET   2.273050   0.000000   0.000000
                                        }
                                    }
                                }
                            }
                            JOINT LeftFinger4
                            {
                                OFFSET   7.435090   0.000000  -3.252850
                                CHANNELS 3 Zrotation Xrotation Yrotation
                                JOINT LeftFinger41
                                {
                                    OFFSET   3.717550   0.000000   0.000000
                                    CHANNELS 3 Zrotation Xrotation Yrotation
                                    JOINT LeftFinger42
                                    {
                                        OFFSET   1.858770   0.000000   0.000000
                                        CHANNELS 3 Zrotation Xrotation Yrotation
                                        End Site
                                        {
                                            OFFSET   1.818440   0.000000   0.000000
                                        }
                                    }
                                }
                            }
                        }
                    }
                }
            }
            JOINT RightCollar
            {
                OFFSET  -3.911910  19.017000  -0.467062
                CHANNELS 3 Zrotation Xrotation Yrotation
                JOINT RightShoulder
                {
                    OFFSET -10.383700   0.000014   0.000000
                    CHANNELS 3 Zrotation Xrotation Yrotation
                    JOINT RightElbow
                    {
                        OFFSET -26.662100   0.001225   0.001091
                        CHANNELS 3 Zrotation Xrotation Yrotation
                        JOINT RightWrist
                        {
                            OFFSET -28.869000  -0.000020  -0.000085
                            CHANNELS 3 Zrotation Xrotation Yrotation
                            JOINT RightFinger0
                            {
                                OFFSET  -2.044650  -2.323490   3.252850
                                CHANNELS 3 Zrotation Xrotation Yrotation
                                JOINT RightFinger01
                                {
                                    OFFSET  -3.088130   0.000000   0.000000
                                    CHANNELS 3 Zrotation Xrotation Yrotation
                                    JOINT RightFinger02
                                    {
                                        OFFSET  -2.639460   0.000000   0.000000
                                        CHANNELS 3 Zrotation Xrotation Yrotation
                                        End Site
                                        {
                                            OFFSET  -2.582190   0.000000   0.000000
                                        }
                                    }
                                }
                            }
                            JOINT RightFinger1
                            {
                                OFFSET  -8.364480   0.000000   3.252850
                                CHANNELS 3 Zrotation Xrotation Yrotation
                                JOINT RightFinger11
                                {
                                    OFFSET  -4.646930   0.000000   0.000000
                                    CHANNELS 3 Zrotation Xrotation Yrotation
                                    JOINT RightFinger12
                                    {
                                        OFFSET  -2.323470   0.000000   0.000000
                                        CHANNELS 3 Zrotation Xrotation Yrotation
                                        End Site
                                        {
                                            OFFSET  -2.273050   0.000000   0.000000
                                        }
                                    }
                                }
                            }
                            JOINT RightFinger2
                            {
                                OFFSET  -8.364480   0.000000   1.078090
                                CHANNELS 3 Zrotation Xrotation Yrotation
                                JOINT RightFinger21
                                {
                                    OFFSET  -5.111620   0.000000   0.000000
                                    CHANNELS 3 Zrotation Xrotation Yrotation
                                    JOINT RightFinger22
                                    {
                                        OFFSET  -2.788160   0.000000   0.000000
                                        CHANNELS 3 Zrotation Xrotation Yrotation
                                        End Site
                                        {
                                            OFFSET  -2.727660   0.000000   0.000000
                                        }
                                    }
                                }
                            }
                            JOINT RightFinger3
                            {
                                OFFSET  -7.899780   0.000000  -1.078090
                                CHANNELS 3 Zrotation Xrotation Yrotation
                                JOINT RightFinger31
                                {
                                    OFFSET  -4.646930   0.000000   0.000000
                                    CHANNELS 3 Zrotation Xrotation Yrotation
                                    JOINT RightFinger32
                                    {
                                        OFFSET  -2.323470   0.000000   0.000000
                                        CHANNELS 3 Zrotation Xrotation Yrotation
                                        End Site
                                        {
                                            OFFSET  -2.273050   0.000000   0.000000
                                        }
                                    }
                                }
                            }
                            JOINT RightFinger4
                            {
                                OFFSET  -7.435090   0.000000  -3.252850
                                CHANNELS 3 Zrotation Xrotation Yrotation
                                JOINT RightFinger41
                                {
                                    OFFSET  -3.717550   0.000000   0.000000
                                    CHANNELS 3 Zrotation Xrotation Yrotation
                                    JOINT RightFinger42
                                    {
                                        OFFSET  -1.858760   0.000000   0.000000
                                        CHANNELS 3 Zrotation Xrotation Yrotation
                                        End Site
                                        {
                                            OFFSET  -1.818440   0.000000   0.000000
                                        }
                                    }
                                }
                            }
                        }
                    }
                }
            }
        }
    }
    JOINT LeftHip
    {
        OFFSET   9.783030   0.000000   0.000000
        CHANNELS 3 Zrotation Xrotation Yrotation
        JOINT LeftKnee
        {
            OFFSET   0.000063 -41.789100   0.000608
            CHANNELS 3 Zrotation Xrotation Yrotation
            JOINT LeftAnkle
            {
                OFFSET   0.000048 -41.133200  -0.000184
                CHANNELS 3 Zrotation Xrotation Yrotation
                JOINT LeftToe
                {
                    OFFSET   0.000000  -6.358960  14.674500
                    CHANNELS 3 Zrotation Xrotation Yrotation
                    End Site
                    {
                        OFFSET   0.000000   0.000000   3.913200
                    }
                }
            }
        }
    }
    JOINT RightHip
    {
        OFFSET  -9.783030   0.000000   0.000000
        CHANNELS 3 Zrotation Xrotation Yrotation
        JOINT RightKnee
        {
            OFFSET   0.000071 -41.789100   0.001239
            CHANNELS 3 Zrotation Xrotation Yrotation
            JOINT RightAnkle
            {
                OFFSET   0.000037 -41.133200  -0.000166
                CHANNELS 3 Zrotation Xrotation Yrotation
                JOINT RightToe
                {
                    OFFSET   0.000000  -6.358960  14.674500
                    CHANNELS 3 Zrotation Xrotation Yrotation
                    End Site
                    {
                        OFFSET   0.000000   0.000000   3.913200
                    }
                }
            }
        }
    }
}
MOTION
Frames: 4
Frame Time:   0.016667
 -0.457878  89.558000  -1.743220  -3.325820  -9.168140  -5.013880   0.714088   5.888780   0.564862   1.380470  11.784000   1.063970   1.210220  -0.846107   0.018185   1.989750  -1.713290   2.917850  -7.238580  -1.300270   0.816498 -72.617700  18.441200  -3.699670  -0.857275  -4.445310 -20.584200  19.313500 -11.832100  11.839800  45.201800  41.028900 -70.847700 -31.355300   0.009432   0.005769 -10.677700   0.006623   0.003411 -29.871500   6.452950 -11.071400 -24.952500  -0.000944  -0.003796 -17.466700  -0.000941  -0.003352 -28.108700  -0.208233   0.389912 -32.697600   0.002661  -0.010966 -21.776600   0.000980  -0.009039 -27.651900  -0.205096   0.391573 -29.926300  -0.009110   0.000146 -19.930900   0.000584  -0.001701 -27.828500  -0.206389   0.390893 -41.743800   0.004031   0.001468 -27.801400   0.001555  -0.007349  12.456900  -0.795151   7.213790  68.127200  13.474900  -5.949590  -5.322650  -2.546930  21.329100 -12.059700  -8.266220  -0.976599 -39.695900  34.438200  63.934300  32.358300  -0.006039  -0.015131  11.179100  -0.011194  -0.017797  31.697100   7.866170  12.496000  26.643400   0.002673  -0.005830  18.650400  -0.004342  -0.005947  28.460000   2.493940   4.591170  36.664400  -0.014599  -0.015113  24.418500  -0.004559  -0.019561  28.043500   1.822530   3.420230  32.574300   0.001720  -0.015065  21.694500  -0.001022  -0.008468  33.564600   0.559739   0.834734  50.357400  -0.009112  -0.011010  33.538000  -0.009076  -0.001204   2.015200  12.255500   2.953900   1.154410   0.005369   3.778190  -1.076480  -3.570460   2.143840  -0.000000   0.000000  -0.000000   4.665360  10.102700  -3.040710  -1.672240   2.433830  -5.229950  -1.586380  -4.146800   3.345100   0.000000   0.000000   0.000000
 -0.443794  89.559300  -1.741200  -3.327950  -9.230590  -4.977520   0.721832   5.911580   0.597785   1.392460  11.830000   1.129310   1.197190  -0.856606   0.018156   1.968390  -1.734670   2.829210  -7.250550  -1.290580   0.677170 -72.620600  18.387900  -3.693990  -0.865218  -4.386820 -20.641500  19.324800 -11.833500  11.853200  45.197500  41.031200 -70.846900 -31.383800   0.009426   0.005807 -10.691900   0.006610   0.003409 -29.893400   6.430690 -11.024800 -24.966400  -0.000948  -0.003772 -17.476500  -0.000940  -0.003337 -28.108400  -0.226525   0.424115 -32.713700   0.002691  -0.010966 -21.787400   0.000992  -0.009040 -27.651600  -0.223124   0.425919 -29.945300  -0.009128   0.000251 -19.943500   0.000592  -0.001656 -27.837300  -0.224555   0.425157 -41.757200   0.004070   0.001482 -27.810300   0.001562  -0.007362  12.416900  -0.848820   7.020740  68.091100  13.613800  -5.801190  -5.332150  -2.818010  21.948800 -12.219000  -8.093200  -1.680600 -40.319600  35.307900  64.590700  32.214300  -0.006586  -0.024435  11.107100  -0.011343  -0.017803  31.682100   7.858290  12.499900  26.630800   0.002682  -0.006916  18.641600  -0.004394  -0.005946  28.399600   2.436110   4.504180  35.969600  -0.014599  -0.026378  23.955700  -0.004509  -0.019560  27.956100   1.819220   3.424040  32.057000   0.001752  -0.025936  21.350000  -0.001015  -0.014771  33.302700   0.613304   0.924203  49.968100  -0.014041  -0.018063  33.278700  -0.014318  -0.001096   2.012870  12.299700   2.955830   1.151850   0.024903   3.734500  -1.076340  -3.569090   2.145950  -0.000000   0.000000  -0.000000   4.645910  10.155900  -3.116730  -1.665170   2.449950  -5.224510  -1.592290  -4.161990   3.364180  -0.000000   0.000000  -0.000000
 -0.419266  89.563700  -1.739170  -3.337280  -9.361810  -4.926390   0.739760   5.968510   0.650028   1.422650  11.944700   1.232180   1.162660  -0.874706   0.018098   1.911660  -1.771530   2.686120  -7.286980  -1.280920   0.394676 -72.619600  18.327300  -3.660950  -0.889429  -4.327390 -20.733500  19.338700 -11.846800  11.867100  45.168200  41.046000 -70.842800 -31.423400   0.009403   0.005846 -10.711700   0.006583   0.003396 -29.925900   6.398500 -10.957100 -24.987400  -0.000964  -0.003716 -17.491200  -0.000931  -0.003303 -28.108000  -0.254155   0.475780 -32.738600   0.002756  -0.010967 -21.804000   0.001023  -0.009045 -27.651200  -0.250356   0.477800 -29.974000  -0.009168   0.000356 -19.962700   0.000612  -0.001554 -27.850400  -0.252000   0.476914 -41.777100   0.004158   0.001515 -27.823600   0.001580  -0.007394  12.322200  -0.976174   6.716670  68.032800  13.962600  -5.531370  -5.512820  -3.072950  23.161000 -12.795400  -7.471980  -2.859270 -41.359800  36.488100  65.805200  31.774000  -0.008109  -0.037656  10.887000  -0.011550  -0.017810  31.566900   7.849660  12.528600  26.542700   0.002695  -0.010162  18.579900  -0.004506  -0.005946  28.264500   2.378260   4.417210  34.650900  -0.014598  -0.037643  23.077400  -0.004440  -0.019558  27.778700   1.815860   3.450770  30.990100   0.001798  -0.036806  20.639400  -0.001008  -0.021074  32.739300   0.727218   1.123170  49.128600  -0.018970  -0.025116  32.719600  -0.019559  -0.000917   2.009340  12.401400   2.958420   1.145940   0.044439   3.659340  -1.075370  -3.559440   2.160740  -0.000000   0.000000   0.000000   4.638120  10.259000  -3.241800  -1.655880   2.492330  -5.215180  -1.603910  -4.190010   3.396850  -0.000000   0.000000   0.000000
 -0.397617  89.571000  -1.740200  -3.360530  -9.531220  -4.903120   0.767494   6.050510   0.687879   1.473880  12.109400   1.304680   1.104220  -0.887080   0.018014   1.815630  -1.796800   2.575020  -7.342600  -1.321350   0.051812 -72.603500  18.320300  -3.544720  -0.928230  -4.331780 -20.813800  19.327500 -11.899200  11.867200  45.214700  41.126500 -70.942300 -31.435800   0.009355   0.005803 -10.717900   0.006555   0.003367 -29.946700   6.381690 -10.919900 -25.001500  -0.000995  -0.003635 -17.501100  -0.000902  -0.003249 -28.109600  -0.271486   0.508141 -32.757800   0.002846  -0.010966 -21.816700   0.001071  -0.009051 -27.653100  -0.267426   0.510301 -29.992600  -0.009225  -0.000358 -19.975200   0.000642  -0.001408 -27.857500  -0.269188   0.509313 -41.788000   0.004282   0.001562 -27.830900   0.001606  -0.007440  12.181800  -1.151380   6.465600  67.986700  14.454000  -5.295320  -5.965720  -2.866040  24.476800 -14.079500  -6.198230  -3.848200 -41.952200  36.933900  66.905700  31.026500  -0.011463  -0.044026  10.513300  -0.011636  -0.017650  31.251300   7.906650  12.738600  26.310100   0.002699  -0.017718  18.417100  -0.004664  -0.010582  28.068900   2.443650   4.571160  33.166800  -0.010605  -0.036739  22.089000  -0.004407  -0.017736  27.557800   1.920030   3.683610  29.581000   0.001820  -0.032206  19.701000  -0.001008  -0.018815  31.960600   0.883499   1.409110  47.964900  -0.015333  -0.023705  31.944600  -0.017056  -0.000740   2.015060  12.549900   2.954840   1.135760   0.038923   3.590880  -1.072600  -3.529460   2.199780  -0.000000   0.000000   0.000000   4.667310  10.382700  -3.361720  -1.676530   2.555060  -5.206690  -1.618610  -4.218770   3.429670  -0.000000   0.000000   0.000000
